<mxfile>
    <diagram id="crwNeOxnrtYkUhKBaMJf" name="Page-1">
        <mxGraphModel dx="1465" dy="942" grid="1" gridSize="10" guides="1" tooltips="1" connect="1" arrows="1" fold="1" page="1" pageScale="1" pageWidth="850" pageHeight="1100" math="0" shadow="0">
            <root>
                <mxCell id="0"/>
                <mxCell id="1" parent="0"/>
                <mxCell id="55" style="edgeStyle=orthogonalEdgeStyle;rounded=0;orthogonalLoop=1;jettySize=auto;html=1;entryX=0.5;entryY=0;entryDx=0;entryDy=0;" parent="1" source="2" target="3" edge="1">
                    <mxGeometry relative="1" as="geometry"/>
                </mxCell>
                <mxCell id="2" value="Start" style="html=1;dashed=0;whitespace=wrap;shape=mxgraph.dfd.start" parent="1" vertex="1">
                    <mxGeometry x="260" y="40" width="80" height="30" as="geometry"/>
                </mxCell>
                <mxCell id="54" style="edgeStyle=orthogonalEdgeStyle;rounded=0;orthogonalLoop=1;jettySize=auto;html=1;entryX=0.5;entryY=0;entryDx=0;entryDy=0;" parent="1" source="3" target="4" edge="1">
                    <mxGeometry relative="1" as="geometry"/>
                </mxCell>
                <mxCell id="61" style="edgeStyle=orthogonalEdgeStyle;rounded=0;orthogonalLoop=1;jettySize=auto;html=1;entryX=0;entryY=0.5;entryDx=0;entryDy=0;" parent="1" source="3" target="60" edge="1">
                    <mxGeometry relative="1" as="geometry"/>
                </mxCell>
                <mxCell id="3" value="1) Develop Product &lt;br&gt;Requirements Document" style="html=1;dashed=0;whitespace=wrap;" parent="1" vertex="1">
                    <mxGeometry x="225" y="115" width="150" height="65" as="geometry"/>
                </mxCell>
                <mxCell id="56" style="edgeStyle=orthogonalEdgeStyle;rounded=0;orthogonalLoop=1;jettySize=auto;html=1;" parent="1" source="4" target="35" edge="1">
                    <mxGeometry relative="1" as="geometry"/>
                </mxCell>
                <mxCell id="59" style="edgeStyle=orthogonalEdgeStyle;rounded=0;orthogonalLoop=1;jettySize=auto;html=1;entryX=0.5;entryY=0;entryDx=0;entryDy=0;" parent="1" source="4" target="57" edge="1">
                    <mxGeometry relative="1" as="geometry"/>
                </mxCell>
                <mxCell id="4" value="2) Develop Feature &lt;br&gt;Specifications &lt;br&gt;Doc (FSD)" style="html=1;dashed=0;whitespace=wrap;" parent="1" vertex="1">
                    <mxGeometry x="222.5" y="230" width="155" height="60" as="geometry"/>
                </mxCell>
                <mxCell id="58" style="edgeStyle=orthogonalEdgeStyle;rounded=0;orthogonalLoop=1;jettySize=auto;html=1;" parent="1" source="35" target="4" edge="1">
                    <mxGeometry relative="1" as="geometry"/>
                </mxCell>
                <mxCell id="35" value="Iterate, review, &lt;br&gt;get feedback" style="verticalLabelPosition=bottom;html=1;verticalAlign=top;strokeWidth=2;shape=mxgraph.lean_mapping.physical_pull;pointerEvents=1;" parent="1" vertex="1">
                    <mxGeometry x="450" y="220" width="80" height="80" as="geometry"/>
                </mxCell>
                <mxCell id="75" style="edgeStyle=orthogonalEdgeStyle;rounded=0;orthogonalLoop=1;jettySize=auto;html=1;entryX=0;entryY=0.5;entryDx=0;entryDy=0;" parent="1" source="51" target="72" edge="1">
                    <mxGeometry relative="1" as="geometry">
                        <mxPoint x="610" y="740" as="targetPoint"/>
                        <Array as="points">
                            <mxPoint x="570" y="860"/>
                            <mxPoint x="570" y="770"/>
                        </Array>
                    </mxGeometry>
                </mxCell>
                <mxCell id="76" style="edgeStyle=orthogonalEdgeStyle;rounded=0;orthogonalLoop=1;jettySize=auto;html=1;exitX=1;exitY=0.5;exitDx=0;exitDy=0;entryX=0;entryY=0.5;entryDx=0;entryDy=0;" parent="1" source="51" target="73" edge="1">
                    <mxGeometry relative="1" as="geometry">
                        <Array as="points">
                            <mxPoint x="570" y="860"/>
                            <mxPoint x="570" y="920"/>
                        </Array>
                    </mxGeometry>
                </mxCell>
                <mxCell id="51" value="6) Release Version on GitHub/Anaconda" style="rounded=0;whiteSpace=wrap;html=1;" parent="1" vertex="1">
                    <mxGeometry x="410" y="830" width="120" height="60" as="geometry"/>
                </mxCell>
                <mxCell id="63" style="edgeStyle=orthogonalEdgeStyle;rounded=0;orthogonalLoop=1;jettySize=auto;html=1;entryX=0.5;entryY=0;entryDx=0;entryDy=0;" parent="1" source="57" target="62" edge="1">
                    <mxGeometry relative="1" as="geometry"/>
                </mxCell>
                <mxCell id="57" value="3) Finalize FSD and&lt;br&gt;handover to developers" style="rounded=0;whiteSpace=wrap;html=1;" parent="1" vertex="1">
                    <mxGeometry x="240" y="360" width="120" height="60" as="geometry"/>
                </mxCell>
                <mxCell id="99" style="edgeStyle=orthogonalEdgeStyle;rounded=0;orthogonalLoop=1;jettySize=auto;html=1;exitX=0;exitY=0.5;exitDx=0;exitDy=0;" parent="1" source="60" target="3" edge="1">
                    <mxGeometry relative="1" as="geometry"/>
                </mxCell>
                <mxCell id="60" value="Iterate, review, get feedback" style="verticalLabelPosition=bottom;html=1;verticalAlign=top;strokeWidth=2;shape=mxgraph.lean_mapping.physical_pull;pointerEvents=1;" parent="1" vertex="1">
                    <mxGeometry x="450" y="106.88" width="80" height="81.25" as="geometry"/>
                </mxCell>
                <mxCell id="106" style="edgeStyle=orthogonalEdgeStyle;rounded=0;orthogonalLoop=1;jettySize=auto;html=1;entryX=0.5;entryY=0;entryDx=0;entryDy=0;" parent="1" source="62" target="64" edge="1">
                    <mxGeometry relative="1" as="geometry"/>
                </mxCell>
                <mxCell id="62" value="4) Implement" style="rounded=0;whiteSpace=wrap;html=1;" parent="1" vertex="1">
                    <mxGeometry x="240" y="460" width="120" height="60" as="geometry"/>
                </mxCell>
                <mxCell id="103" style="edgeStyle=orthogonalEdgeStyle;rounded=0;orthogonalLoop=1;jettySize=auto;html=1;entryX=0.5;entryY=0;entryDx=0;entryDy=0;" parent="1" source="64" target="101" edge="1">
                    <mxGeometry relative="1" as="geometry"/>
                </mxCell>
                <mxCell id="64" value="" style="verticalLabelPosition=bottom;html=1;verticalAlign=top;strokeWidth=2;shape=mxgraph.lean_mapping.physical_pull;pointerEvents=1;" parent="1" vertex="1">
                    <mxGeometry x="260" y="550" width="80" height="80" as="geometry"/>
                </mxCell>
                <mxCell id="71" style="edgeStyle=orthogonalEdgeStyle;rounded=0;orthogonalLoop=1;jettySize=auto;html=1;entryX=0;entryY=0.5;entryDx=0;entryDy=0;" parent="1" source="69" target="51" edge="1">
                    <mxGeometry relative="1" as="geometry"/>
                </mxCell>
                <mxCell id="69" value="5) Finalize and Merge PR" style="rounded=0;whiteSpace=wrap;html=1;" parent="1" vertex="1">
                    <mxGeometry x="240" y="830" width="120" height="60" as="geometry"/>
                </mxCell>
                <mxCell id="90" style="edgeStyle=orthogonalEdgeStyle;rounded=0;orthogonalLoop=1;jettySize=auto;html=1;exitX=1;exitY=0.5;exitDx=0;exitDy=0;entryX=0;entryY=0.5;entryDx=0;entryDy=0;" parent="1" source="72" target="89" edge="1">
                    <mxGeometry relative="1" as="geometry">
                        <mxPoint x="740" y="740" as="sourcePoint"/>
                        <Array as="points">
                            <mxPoint x="770" y="770"/>
                            <mxPoint x="770" y="855"/>
                        </Array>
                    </mxGeometry>
                </mxCell>
                <mxCell id="72" value="7a) Perform cross-validation with CDAT" style="rounded=0;whiteSpace=wrap;html=1;" parent="1" vertex="1">
                    <mxGeometry x="620" y="740" width="120" height="60" as="geometry"/>
                </mxCell>
                <mxCell id="111" style="edgeStyle=orthogonalEdgeStyle;rounded=0;orthogonalLoop=1;jettySize=auto;html=1;entryX=0;entryY=0.5;entryDx=0;entryDy=0;" parent="1" source="73" target="89" edge="1">
                    <mxGeometry relative="1" as="geometry">
                        <Array as="points">
                            <mxPoint x="770" y="920"/>
                            <mxPoint x="770" y="855"/>
                        </Array>
                    </mxGeometry>
                </mxCell>
                <mxCell id="73" value="7b) Test on existing tools that leverage CDAT" style="rounded=0;whiteSpace=wrap;html=1;" parent="1" vertex="1">
                    <mxGeometry x="620" y="890" width="120" height="60" as="geometry"/>
                </mxCell>
                <mxCell id="86" style="edgeStyle=orthogonalEdgeStyle;rounded=0;orthogonalLoop=1;jettySize=auto;html=1;" parent="1" target="69" edge="1">
                    <mxGeometry relative="1" as="geometry">
                        <mxPoint x="300" y="730" as="sourcePoint"/>
                    </mxGeometry>
                </mxCell>
                <mxCell id="110" value="Yes" style="edgeLabel;html=1;align=center;verticalAlign=middle;resizable=0;points=[];" parent="86" vertex="1" connectable="0">
                    <mxGeometry x="0.2" relative="1" as="geometry">
                        <mxPoint as="offset"/>
                    </mxGeometry>
                </mxCell>
                <mxCell id="92" value="Yes" style="edgeStyle=orthogonalEdgeStyle;rounded=0;orthogonalLoop=1;jettySize=auto;html=1;entryX=0;entryY=0.5;entryDx=0;entryDy=0;exitX=1;exitY=0.5;exitDx=0;exitDy=0;" parent="1" source="89" target="96" edge="1">
                    <mxGeometry relative="1" as="geometry">
                        <mxPoint x="1070" y="805" as="targetPoint"/>
                        <mxPoint x="945" y="860" as="sourcePoint"/>
                        <Array as="points">
                            <mxPoint x="970" y="855"/>
                            <mxPoint x="970" y="855"/>
                        </Array>
                    </mxGeometry>
                </mxCell>
                <mxCell id="93" value="No" style="edgeStyle=orthogonalEdgeStyle;rounded=0;orthogonalLoop=1;jettySize=auto;html=1;entryX=0.5;entryY=1;entryDx=0;entryDy=0;" parent="1" source="89" target="94" edge="1">
                    <mxGeometry relative="1" as="geometry">
                        <mxPoint x="885" y="550" as="targetPoint"/>
                        <Array as="points">
                            <mxPoint x="885" y="660"/>
                            <mxPoint x="885" y="660"/>
                        </Array>
                    </mxGeometry>
                </mxCell>
                <mxCell id="89" value="8) Ready to &lt;br&gt;share with&lt;br&gt;&amp;nbsp;community?" style="shape=rhombus;html=1;dashed=0;whitespace=wrap;perimeter=rhombusPerimeter;" parent="1" vertex="1">
                    <mxGeometry x="820" y="810" width="130" height="90" as="geometry"/>
                </mxCell>
                <mxCell id="95" style="edgeStyle=orthogonalEdgeStyle;rounded=0;orthogonalLoop=1;jettySize=auto;html=1;entryX=1;entryY=0.5;entryDx=0;entryDy=0;" parent="1" source="94" target="62" edge="1">
                    <mxGeometry relative="1" as="geometry"/>
                </mxCell>
                <mxCell id="94" value="9a) Bug Fixes/Feature Updates" style="rounded=0;whiteSpace=wrap;html=1;" parent="1" vertex="1">
                    <mxGeometry x="825" y="460" width="120" height="60" as="geometry"/>
                </mxCell>
                <mxCell id="98" style="edgeStyle=orthogonalEdgeStyle;rounded=0;orthogonalLoop=1;jettySize=auto;html=1;entryX=0;entryY=0.5;entryDx=0;entryDy=0;entryPerimeter=0;" parent="1" source="96" target="97" edge="1">
                    <mxGeometry relative="1" as="geometry"/>
                </mxCell>
                <mxCell id="96" value="9b) Notify Climate community of xCDAT release" style="rounded=0;whiteSpace=wrap;html=1;" parent="1" vertex="1">
                    <mxGeometry x="1050" y="825" width="120" height="60" as="geometry"/>
                </mxCell>
                <mxCell id="97" value="End" style="html=1;dashed=0;whitespace=wrap;shape=mxgraph.dfd.start" parent="1" vertex="1">
                    <mxGeometry x="1220" y="840" width="80" height="30" as="geometry"/>
                </mxCell>
                <mxCell id="105" value="No" style="edgeStyle=orthogonalEdgeStyle;rounded=0;orthogonalLoop=1;jettySize=auto;html=1;entryX=0;entryY=0.5;entryDx=0;entryDy=0;" parent="1" source="101" target="64" edge="1">
                    <mxGeometry relative="1" as="geometry">
                        <Array as="points">
                            <mxPoint x="200" y="720"/>
                            <mxPoint x="200" y="590"/>
                        </Array>
                    </mxGeometry>
                </mxCell>
                <mxCell id="101" value="Ready for Merge?" style="shape=rhombus;html=1;dashed=0;whitespace=wrap;perimeter=rhombusPerimeter;" parent="1" vertex="1">
                    <mxGeometry x="235" y="685" width="130" height="70" as="geometry"/>
                </mxCell>
                <mxCell id="107" value="&lt;span style=&quot;color: rgb(0 , 0 , 0) ; font-family: &amp;#34;helvetica&amp;#34; ; font-size: 12px ; font-style: normal ; font-weight: 400 ; letter-spacing: normal ; text-align: center ; text-indent: 0px ; text-transform: none ; word-spacing: 0px ; background-color: rgb(248 , 249 , 250) ; display: inline ; float: none&quot;&gt;Iterate, review, &lt;br&gt;get feedback&lt;/span&gt;" style="text;whiteSpace=wrap;html=1;" parent="1" vertex="1">
                    <mxGeometry x="360" y="570" width="160" height="30" as="geometry"/>
                </mxCell>
                <mxCell id="112" value="&lt;font style=&quot;font-size: 22px&quot;&gt;&lt;b&gt;Development Cycle for an xCDAT Feature&lt;/b&gt;&lt;/font&gt;" style="text;html=1;align=center;verticalAlign=middle;resizable=0;points=[];autosize=1;strokeColor=none;" parent="1" vertex="1">
                    <mxGeometry x="620" y="45" width="450" height="20" as="geometry"/>
                </mxCell>
            </root>
        </mxGraphModel>
    </diagram>
    <diagram id="MVj998YGJlK60W6fanOO" name="Page-2">
        <mxGraphModel dx="1696" dy="1068" grid="1" gridSize="10" guides="1" tooltips="1" connect="1" arrows="1" fold="1" page="1" pageScale="1" pageWidth="850" pageHeight="1100" math="0" shadow="0">
            <root>
                <mxCell id="acJGmI16-UkQIH_4ud7h-0"/>
                <mxCell id="acJGmI16-UkQIH_4ud7h-1" parent="acJGmI16-UkQIH_4ud7h-0"/>
                <mxCell id="yzjQjYc-n2DHF61u4lgO-56" value="" style="rounded=0;whiteSpace=wrap;html=1;fontSize=10;verticalAlign=top;" vertex="1" parent="acJGmI16-UkQIH_4ud7h-1">
                    <mxGeometry x="500" y="10" width="190" height="150" as="geometry"/>
                </mxCell>
                <mxCell id="acJGmI16-UkQIH_4ud7h-2" style="edgeStyle=orthogonalEdgeStyle;rounded=0;orthogonalLoop=1;jettySize=auto;html=1;entryX=0.5;entryY=0;entryDx=0;entryDy=0;fontSize=10;spacing=0;" edge="1" parent="acJGmI16-UkQIH_4ud7h-1" source="acJGmI16-UkQIH_4ud7h-3" target="acJGmI16-UkQIH_4ud7h-6">
                    <mxGeometry relative="1" as="geometry"/>
                </mxCell>
                <mxCell id="acJGmI16-UkQIH_4ud7h-3" value="Start" style="html=1;dashed=0;whitespace=wrap;shape=mxgraph.dfd.start;fontSize=10;perimeterSpacing=1;" vertex="1" parent="acJGmI16-UkQIH_4ud7h-1">
                    <mxGeometry x="242.5" y="10" width="80" height="30" as="geometry"/>
                </mxCell>
                <mxCell id="acJGmI16-UkQIH_4ud7h-4" style="edgeStyle=orthogonalEdgeStyle;rounded=0;orthogonalLoop=1;jettySize=auto;html=1;entryX=0.5;entryY=0;entryDx=0;entryDy=0;fontSize=10;spacing=0;" edge="1" parent="acJGmI16-UkQIH_4ud7h-1" source="acJGmI16-UkQIH_4ud7h-6" target="acJGmI16-UkQIH_4ud7h-9">
                    <mxGeometry relative="1" as="geometry"/>
                </mxCell>
                <mxCell id="acJGmI16-UkQIH_4ud7h-6" value="Develop Product &lt;br style=&quot;font-size: 10px;&quot;&gt;Requirements Document" style="html=1;dashed=0;whitespace=wrap;fontSize=10;spacing=0;fillColor=#ffe6cc;strokeColor=#d79b00;" vertex="1" parent="acJGmI16-UkQIH_4ud7h-1">
                    <mxGeometry x="222.5" y="70" width="120" height="55" as="geometry"/>
                </mxCell>
                <mxCell id="yzjQjYc-n2DHF61u4lgO-34" style="edgeStyle=orthogonalEdgeStyle;rounded=0;orthogonalLoop=1;jettySize=auto;html=1;entryX=0.5;entryY=0;entryDx=0;entryDy=0;fontSize=10;verticalAlign=top;" edge="1" parent="acJGmI16-UkQIH_4ud7h-1" source="acJGmI16-UkQIH_4ud7h-9" target="yzjQjYc-n2DHF61u4lgO-28">
                    <mxGeometry relative="1" as="geometry"/>
                </mxCell>
                <mxCell id="yzjQjYc-n2DHF61u4lgO-39" value="Review" style="edgeLabel;html=1;align=center;verticalAlign=middle;resizable=0;points=[];fontSize=10;fontStyle=1" vertex="1" connectable="0" parent="yzjQjYc-n2DHF61u4lgO-34">
                    <mxGeometry x="-0.14" y="1" relative="1" as="geometry">
                        <mxPoint as="offset"/>
                    </mxGeometry>
                </mxCell>
                <mxCell id="acJGmI16-UkQIH_4ud7h-9" value="Develop Feature &lt;br style=&quot;font-size: 10px&quot;&gt;Specifications &lt;br style=&quot;font-size: 10px&quot;&gt;Doc" style="html=1;dashed=0;whitespace=wrap;fontSize=10;spacing=0;fillColor=#ffe6cc;strokeColor=#d79b00;" vertex="1" parent="acJGmI16-UkQIH_4ud7h-1">
                    <mxGeometry x="222.5" y="155" width="120" height="55" as="geometry"/>
                </mxCell>
                <mxCell id="yzjQjYc-n2DHF61u4lgO-12" style="edgeStyle=orthogonalEdgeStyle;rounded=0;orthogonalLoop=1;jettySize=auto;html=1;fontSize=10;spacing=0;" edge="1" parent="acJGmI16-UkQIH_4ud7h-1" source="acJGmI16-UkQIH_4ud7h-14" target="acJGmI16-UkQIH_4ud7h-26">
                    <mxGeometry relative="1" as="geometry"/>
                </mxCell>
                <mxCell id="yzjQjYc-n2DHF61u4lgO-13" style="edgeStyle=orthogonalEdgeStyle;rounded=0;orthogonalLoop=1;jettySize=auto;html=1;entryX=0.5;entryY=0;entryDx=0;entryDy=0;fontSize=10;spacing=0;" edge="1" parent="acJGmI16-UkQIH_4ud7h-1" source="acJGmI16-UkQIH_4ud7h-14" target="acJGmI16-UkQIH_4ud7h-28">
                    <mxGeometry relative="1" as="geometry"/>
                </mxCell>
                <mxCell id="acJGmI16-UkQIH_4ud7h-14" value="Merge PR and &lt;br&gt;release new version" style="rounded=0;whiteSpace=wrap;html=1;fontSize=10;spacing=0;fillColor=#dae8fc;strokeColor=#6c8ebf;" vertex="1" parent="acJGmI16-UkQIH_4ud7h-1">
                    <mxGeometry x="222.5" y="580" width="120" height="55" as="geometry"/>
                </mxCell>
                <mxCell id="acJGmI16-UkQIH_4ud7h-19" style="edgeStyle=orthogonalEdgeStyle;rounded=0;orthogonalLoop=1;jettySize=auto;html=1;entryX=0.5;entryY=0;entryDx=0;entryDy=0;fontSize=10;spacing=0;" edge="1" parent="acJGmI16-UkQIH_4ud7h-1" source="acJGmI16-UkQIH_4ud7h-20" target="acJGmI16-UkQIH_4ud7h-40">
                    <mxGeometry relative="1" as="geometry">
                        <mxPoint x="300" y="500" as="targetPoint"/>
                    </mxGeometry>
                </mxCell>
                <mxCell id="yzjQjYc-n2DHF61u4lgO-18" value="Review" style="edgeLabel;html=1;align=center;verticalAlign=middle;resizable=0;points=[];fontSize=10;spacing=0;fontStyle=1" vertex="1" connectable="0" parent="acJGmI16-UkQIH_4ud7h-19">
                    <mxGeometry x="-0.0579" y="-1" relative="1" as="geometry">
                        <mxPoint as="offset"/>
                    </mxGeometry>
                </mxCell>
                <mxCell id="acJGmI16-UkQIH_4ud7h-20" value="Code Development" style="rounded=0;whiteSpace=wrap;html=1;fontSize=10;spacing=0;fillColor=#dae8fc;strokeColor=#6c8ebf;" vertex="1" parent="acJGmI16-UkQIH_4ud7h-1">
                    <mxGeometry x="222.5" y="370" width="120" height="55" as="geometry"/>
                </mxCell>
                <mxCell id="yzjQjYc-n2DHF61u4lgO-22" style="edgeStyle=orthogonalEdgeStyle;rounded=0;orthogonalLoop=1;jettySize=auto;html=1;fontSize=10;spacing=0;" edge="1" parent="acJGmI16-UkQIH_4ud7h-1" source="acJGmI16-UkQIH_4ud7h-26" target="acJGmI16-UkQIH_4ud7h-33">
                    <mxGeometry relative="1" as="geometry"/>
                </mxCell>
                <mxCell id="acJGmI16-UkQIH_4ud7h-26" value="Cross-validation &lt;br&gt;with CDAT" style="rounded=0;whiteSpace=wrap;html=1;fontSize=10;spacing=0;fillColor=#d5e8d4;strokeColor=#82b366;" vertex="1" parent="acJGmI16-UkQIH_4ud7h-1">
                    <mxGeometry x="160" y="690" width="120" height="55" as="geometry"/>
                </mxCell>
                <mxCell id="yzjQjYc-n2DHF61u4lgO-16" style="edgeStyle=orthogonalEdgeStyle;rounded=0;orthogonalLoop=1;jettySize=auto;html=1;fontSize=10;spacing=0;" edge="1" parent="acJGmI16-UkQIH_4ud7h-1" source="acJGmI16-UkQIH_4ud7h-28" target="acJGmI16-UkQIH_4ud7h-33">
                    <mxGeometry relative="1" as="geometry"/>
                </mxCell>
                <mxCell id="acJGmI16-UkQIH_4ud7h-28" value="Test on existing tools &lt;br&gt;that leverage CDAT" style="rounded=0;whiteSpace=wrap;html=1;fontSize=10;spacing=0;fillColor=#d5e8d4;strokeColor=#82b366;" vertex="1" parent="acJGmI16-UkQIH_4ud7h-1">
                    <mxGeometry x="290" y="690" width="120" height="55" as="geometry"/>
                </mxCell>
                <mxCell id="yzjQjYc-n2DHF61u4lgO-21" style="edgeStyle=orthogonalEdgeStyle;rounded=0;orthogonalLoop=1;jettySize=auto;html=1;fontSize=10;spacing=0;fontStyle=1" edge="1" parent="acJGmI16-UkQIH_4ud7h-1" source="acJGmI16-UkQIH_4ud7h-33" target="acJGmI16-UkQIH_4ud7h-35">
                    <mxGeometry relative="1" as="geometry"/>
                </mxCell>
                <mxCell id="yzjQjYc-n2DHF61u4lgO-62" value="&lt;b&gt;No&lt;/b&gt;" style="edgeLabel;html=1;align=center;verticalAlign=middle;resizable=0;points=[];fontSize=10;" vertex="1" connectable="0" parent="yzjQjYc-n2DHF61u4lgO-21">
                    <mxGeometry x="-0.7795" relative="1" as="geometry">
                        <mxPoint as="offset"/>
                    </mxGeometry>
                </mxCell>
                <mxCell id="yzjQjYc-n2DHF61u4lgO-42" style="edgeStyle=orthogonalEdgeStyle;rounded=0;orthogonalLoop=1;jettySize=auto;html=1;fontSize=10;verticalAlign=top;" edge="1" parent="acJGmI16-UkQIH_4ud7h-1" source="acJGmI16-UkQIH_4ud7h-33" target="acJGmI16-UkQIH_4ud7h-37">
                    <mxGeometry relative="1" as="geometry"/>
                </mxCell>
                <mxCell id="yzjQjYc-n2DHF61u4lgO-44" value="Yes" style="edgeLabel;html=1;align=center;verticalAlign=middle;resizable=0;points=[];fontSize=10;fontStyle=1" vertex="1" connectable="0" parent="yzjQjYc-n2DHF61u4lgO-42">
                    <mxGeometry x="-0.32" relative="1" as="geometry">
                        <mxPoint as="offset"/>
                    </mxGeometry>
                </mxCell>
                <mxCell id="acJGmI16-UkQIH_4ud7h-33" value="Ready to &lt;br style=&quot;font-size: 10px;&quot;&gt;share with&lt;br style=&quot;font-size: 10px;&quot;&gt;&amp;nbsp;community?" style="shape=rhombus;html=1;dashed=0;whitespace=wrap;perimeter=rhombusPerimeter;fontSize=10;spacing=0;fillColor=#d5e8d4;strokeColor=#82b366;" vertex="1" parent="acJGmI16-UkQIH_4ud7h-1">
                    <mxGeometry x="217.5" y="790" width="130" height="70" as="geometry"/>
                </mxCell>
                <mxCell id="yzjQjYc-n2DHF61u4lgO-19" style="edgeStyle=orthogonalEdgeStyle;rounded=0;orthogonalLoop=1;jettySize=auto;html=1;fontSize=10;spacing=0;" edge="1" parent="acJGmI16-UkQIH_4ud7h-1" source="acJGmI16-UkQIH_4ud7h-35" target="acJGmI16-UkQIH_4ud7h-20">
                    <mxGeometry relative="1" as="geometry"/>
                </mxCell>
                <mxCell id="acJGmI16-UkQIH_4ud7h-35" value="&amp;nbsp;Bug Fixes/Feature Updates" style="rounded=0;whiteSpace=wrap;html=1;fontSize=10;spacing=0;fillColor=#dae8fc;strokeColor=#6c8ebf;" vertex="1" parent="acJGmI16-UkQIH_4ud7h-1">
                    <mxGeometry x="400" y="370" width="120" height="55" as="geometry"/>
                </mxCell>
                <mxCell id="yzjQjYc-n2DHF61u4lgO-43" style="edgeStyle=orthogonalEdgeStyle;rounded=0;orthogonalLoop=1;jettySize=auto;html=1;fontSize=10;verticalAlign=top;" edge="1" parent="acJGmI16-UkQIH_4ud7h-1" source="acJGmI16-UkQIH_4ud7h-37" target="acJGmI16-UkQIH_4ud7h-38">
                    <mxGeometry relative="1" as="geometry"/>
                </mxCell>
                <mxCell id="acJGmI16-UkQIH_4ud7h-37" value="Notify Climate &lt;br&gt;community of xCDAT release" style="rounded=0;whiteSpace=wrap;html=1;fontSize=10;spacing=0;fillColor=#f5f5f5;strokeColor=#666666;fontColor=#333333;" vertex="1" parent="acJGmI16-UkQIH_4ud7h-1">
                    <mxGeometry x="222.5" y="900" width="120" height="55" as="geometry"/>
                </mxCell>
                <mxCell id="acJGmI16-UkQIH_4ud7h-38" value="End" style="html=1;dashed=0;whitespace=wrap;shape=mxgraph.dfd.start;fontSize=10;spacing=0;perimeterSpacing=1;" vertex="1" parent="acJGmI16-UkQIH_4ud7h-1">
                    <mxGeometry x="242.5" y="980" width="80" height="30" as="geometry"/>
                </mxCell>
                <mxCell id="yzjQjYc-n2DHF61u4lgO-10" style="edgeStyle=orthogonalEdgeStyle;rounded=0;orthogonalLoop=1;jettySize=auto;html=1;entryX=0.5;entryY=0;entryDx=0;entryDy=0;fontSize=10;spacing=0;" edge="1" parent="acJGmI16-UkQIH_4ud7h-1" source="acJGmI16-UkQIH_4ud7h-40" target="acJGmI16-UkQIH_4ud7h-14">
                    <mxGeometry relative="1" as="geometry">
                        <mxPoint x="300" y="640" as="targetPoint"/>
                    </mxGeometry>
                </mxCell>
                <mxCell id="yzjQjYc-n2DHF61u4lgO-11" value="Yes" style="edgeLabel;html=1;align=center;verticalAlign=middle;resizable=0;points=[];fontSize=10;spacing=0;fontStyle=1" vertex="1" connectable="0" parent="yzjQjYc-n2DHF61u4lgO-10">
                    <mxGeometry x="-0.1678" y="1" relative="1" as="geometry">
                        <mxPoint as="offset"/>
                    </mxGeometry>
                </mxCell>
                <mxCell id="yzjQjYc-n2DHF61u4lgO-40" value="No" style="edgeStyle=orthogonalEdgeStyle;rounded=0;orthogonalLoop=1;jettySize=auto;html=1;entryX=0;entryY=0.5;entryDx=0;entryDy=0;fontSize=10;verticalAlign=top;fontStyle=1" edge="1" parent="acJGmI16-UkQIH_4ud7h-1" source="acJGmI16-UkQIH_4ud7h-40" target="acJGmI16-UkQIH_4ud7h-20">
                    <mxGeometry relative="1" as="geometry">
                        <Array as="points">
                            <mxPoint x="197" y="505"/>
                            <mxPoint x="197" y="398"/>
                        </Array>
                    </mxGeometry>
                </mxCell>
                <mxCell id="acJGmI16-UkQIH_4ud7h-40" value="Ready for Merge?" style="shape=rhombus;html=1;dashed=0;whitespace=wrap;perimeter=rhombusPerimeter;fontSize=10;spacing=0;fillColor=#dae8fc;strokeColor=#6c8ebf;" vertex="1" parent="acJGmI16-UkQIH_4ud7h-1">
                    <mxGeometry x="217.5" y="470" width="130" height="70" as="geometry"/>
                </mxCell>
                <mxCell id="yzjQjYc-n2DHF61u4lgO-29" style="edgeStyle=orthogonalEdgeStyle;rounded=0;orthogonalLoop=1;jettySize=auto;html=1;fontSize=10;verticalAlign=top;fontStyle=1" edge="1" parent="acJGmI16-UkQIH_4ud7h-1" source="yzjQjYc-n2DHF61u4lgO-28" target="acJGmI16-UkQIH_4ud7h-20">
                    <mxGeometry relative="1" as="geometry"/>
                </mxCell>
                <mxCell id="yzjQjYc-n2DHF61u4lgO-30" value="Yes" style="edgeLabel;html=1;align=center;verticalAlign=middle;resizable=0;points=[];fontSize=10;fontStyle=1" vertex="1" connectable="0" parent="yzjQjYc-n2DHF61u4lgO-29">
                    <mxGeometry x="-0.1816" relative="1" as="geometry">
                        <mxPoint as="offset"/>
                    </mxGeometry>
                </mxCell>
                <mxCell id="yzjQjYc-n2DHF61u4lgO-35" style="edgeStyle=orthogonalEdgeStyle;rounded=0;orthogonalLoop=1;jettySize=auto;html=1;entryX=0;entryY=0.5;entryDx=0;entryDy=0;fontSize=10;verticalAlign=top;" edge="1" parent="acJGmI16-UkQIH_4ud7h-1" source="yzjQjYc-n2DHF61u4lgO-28" target="acJGmI16-UkQIH_4ud7h-9">
                    <mxGeometry relative="1" as="geometry">
                        <Array as="points">
                            <mxPoint x="195" y="295"/>
                            <mxPoint x="195" y="183"/>
                            <mxPoint x="223" y="183"/>
                        </Array>
                    </mxGeometry>
                </mxCell>
                <mxCell id="yzjQjYc-n2DHF61u4lgO-38" value="No" style="edgeLabel;html=1;align=center;verticalAlign=middle;resizable=0;points=[];fontSize=10;fontStyle=1" vertex="1" connectable="0" parent="yzjQjYc-n2DHF61u4lgO-35">
                    <mxGeometry x="0.0332" relative="1" as="geometry">
                        <mxPoint as="offset"/>
                    </mxGeometry>
                </mxCell>
                <mxCell id="yzjQjYc-n2DHF61u4lgO-28" value="Ready to Implement?" style="shape=rhombus;html=1;dashed=0;whitespace=wrap;perimeter=rhombusPerimeter;fontSize=10;spacing=0;fillColor=#ffe6cc;strokeColor=#d79b00;" vertex="1" parent="acJGmI16-UkQIH_4ud7h-1">
                    <mxGeometry x="217.5" y="260" width="130" height="70" as="geometry"/>
                </mxCell>
                <mxCell id="yzjQjYc-n2DHF61u4lgO-46" value="" style="html=1;dashed=0;whitespace=wrap;fontSize=10;spacing=0;fillColor=#ffe6cc;strokeColor=#d79b00;rounded=1;" vertex="1" parent="acJGmI16-UkQIH_4ud7h-1">
                    <mxGeometry x="515" y="40" width="40" height="20" as="geometry"/>
                </mxCell>
                <mxCell id="yzjQjYc-n2DHF61u4lgO-47" value="" style="rounded=1;whiteSpace=wrap;html=1;fontSize=10;spacing=0;fillColor=#dae8fc;strokeColor=#6c8ebf;" vertex="1" parent="acJGmI16-UkQIH_4ud7h-1">
                    <mxGeometry x="515" y="70" width="40" height="20" as="geometry"/>
                </mxCell>
                <mxCell id="yzjQjYc-n2DHF61u4lgO-48" value="" style="rounded=1;whiteSpace=wrap;html=1;fontSize=10;spacing=0;fillColor=#d5e8d4;strokeColor=#82b366;" vertex="1" parent="acJGmI16-UkQIH_4ud7h-1">
                    <mxGeometry x="515" y="100" width="40" height="20" as="geometry"/>
                </mxCell>
                <mxCell id="yzjQjYc-n2DHF61u4lgO-50" value="Planning" style="text;html=1;align=left;verticalAlign=middle;resizable=0;points=[];autosize=1;strokeColor=none;fontSize=10;fontStyle=1" vertex="1" parent="acJGmI16-UkQIH_4ud7h-1">
                    <mxGeometry x="560" y="40" width="60" height="20" as="geometry"/>
                </mxCell>
                <mxCell id="yzjQjYc-n2DHF61u4lgO-52" value="Implementation" style="text;html=1;align=left;verticalAlign=middle;resizable=0;points=[];autosize=1;strokeColor=none;fontSize=10;fontStyle=1" vertex="1" parent="acJGmI16-UkQIH_4ud7h-1">
                    <mxGeometry x="560" y="70" width="90" height="20" as="geometry"/>
                </mxCell>
                <mxCell id="yzjQjYc-n2DHF61u4lgO-53" value="Validation" style="text;html=1;align=left;verticalAlign=middle;resizable=0;points=[];autosize=1;strokeColor=none;fontSize=10;fontStyle=1" vertex="1" parent="acJGmI16-UkQIH_4ud7h-1">
                    <mxGeometry x="560" y="100" width="60" height="20" as="geometry"/>
                </mxCell>
                <mxCell id="yzjQjYc-n2DHF61u4lgO-54" value="&lt;h3&gt;Development Phases&lt;/h3&gt;" style="text;html=1;strokeColor=none;fillColor=none;align=center;verticalAlign=middle;whiteSpace=wrap;rounded=0;fontSize=10;" vertex="1" parent="acJGmI16-UkQIH_4ud7h-1">
                    <mxGeometry x="525" y="10" width="130" height="20" as="geometry"/>
                </mxCell>
                <mxCell id="yzjQjYc-n2DHF61u4lgO-59" value="Notification" style="text;html=1;align=left;verticalAlign=middle;resizable=0;points=[];autosize=1;strokeColor=none;fontSize=10;fontStyle=1" vertex="1" parent="acJGmI16-UkQIH_4ud7h-1">
                    <mxGeometry x="560" y="130" width="70" height="20" as="geometry"/>
                </mxCell>
                <mxCell id="yzjQjYc-n2DHF61u4lgO-60" value="" style="rounded=1;whiteSpace=wrap;html=1;fontSize=10;spacing=0;fillColor=#f5f5f5;strokeColor=#666666;fontColor=#333333;" vertex="1" parent="acJGmI16-UkQIH_4ud7h-1">
                    <mxGeometry x="515" y="130" width="40" height="20" as="geometry"/>
                </mxCell>
            </root>
        </mxGraphModel>
    </diagram>
</mxfile>